<svg width="37" height="37" viewBox="0 0 37 37" fill="none" xmlns="http://www.w3.org/2000/svg">
<path d="M9.49023 5.8877C12.4625 3.7644 16.0892 2.75885 19.7305 3.04883C23.3717 3.33888 26.7939 4.9057 29.3926 7.47266C31.9913 10.0398 33.6 13.4426 33.9346 17.0801C34.2691 20.7177 33.3086 24.3573 31.2217 27.3555C29.1348 30.3535 26.0556 32.5174 22.5283 33.4668C19.1251 34.3827 15.5153 34.1105 12.293 32.7021L8.41309 33.8379C8.38919 33.8449 8.36488 33.851 8.34082 33.8574C7.64112 34.0431 6.90476 34.0474 6.20312 33.8691C5.50162 33.6908 4.85715 33.336 4.33105 32.8389C3.80506 32.3418 3.41495 31.7185 3.19727 31.0283C2.97958 30.3379 2.94107 29.6027 3.08691 28.8936L3.125 28.7324C3.13903 28.6793 3.15494 28.6265 3.17188 28.5742L4.37109 24.8711C2.92685 21.6685 2.61101 18.0662 3.48438 14.6553C4.39057 11.1165 6.51781 8.01111 9.49023 5.8877Z" stroke="black" stroke-width="6" stroke-linecap="round" stroke-linejoin="round"/>
</svg>
