<svg width="205" height="70" viewBox="0 0 205 70" fill="none" xmlns="http://www.w3.org/2000/svg">
<path d="M45.42 30.08V23.5H49.62V14.33H57.39V23.5H65.02V30.08H57.39V46.32C57.39 47.1133 57.53 47.6733 57.81 48C58.09 48.28 58.6267 48.42 59.42 48.42H65.02V55H59.42C55.78 55 53.2367 54.4167 51.79 53.25C50.3433 52.0367 49.62 49.7267 49.62 46.32V30.08H45.42ZM68.0765 46.6C68.0765 39.8333 75.5198 35.96 90.4065 34.98C90.7798 34.9333 91.0598 34.91 91.2465 34.91V34.63C91.2465 30.6633 89.0065 28.68 84.5265 28.68C83.2665 28.68 82.1698 28.82 81.2365 29.1C80.3032 29.38 79.6265 29.7067 79.2065 30.08C78.7865 30.4533 78.4365 30.85 78.1565 31.27C77.9232 31.6433 77.7832 31.97 77.7365 32.25V32.67H69.6165C69.6165 32.39 69.6398 32.04 69.6865 31.62C69.7798 31.1533 70.1065 30.36 70.6665 29.24C71.2732 28.12 72.0432 27.1167 72.9765 26.23C73.9098 25.3433 75.3798 24.55 77.3865 23.85C79.4398 23.15 81.8432 22.8 84.5965 22.8C89.3565 22.8 92.9265 23.85 95.3065 25.95C97.6865 28.05 98.8765 30.8967 98.8765 34.49V46.39C98.8765 47.1833 98.9932 47.72 99.2265 48C99.5065 48.28 99.9965 48.42 100.696 48.42H102.236V55H100.626C97.9665 55 95.9598 54.6967 94.6065 54.09C93.2532 53.4833 92.3198 52.41 91.8065 50.87C89.1932 54.09 85.2265 55.7 79.9065 55.7C75.9865 55.7 73.0232 54.86 71.0165 53.18C69.0565 51.4533 68.0765 49.26 68.0765 46.6ZM77.4565 48.91C78.3898 49.5167 79.6032 49.8433 81.0965 49.89C83.5698 49.89 85.8798 49.2133 88.0265 47.86C90.1732 46.46 91.2465 44.6633 91.2465 42.47V40.09C90.0332 40.1833 89.0532 40.2767 88.3065 40.37C87.5598 40.4167 86.4865 40.5333 85.0865 40.72C83.6865 40.9067 82.5432 41.14 81.6565 41.42C80.7698 41.7 79.8365 42.0733 78.8565 42.54C77.9232 42.96 77.2232 43.52 76.7565 44.22C76.2898 44.8733 76.0565 45.62 76.0565 46.46C76.0565 47.5333 76.5232 48.35 77.4565 48.91ZM105.972 9.99H113.672V46.32C113.672 47.1133 113.812 47.6733 114.092 48C114.372 48.28 114.909 48.42 115.702 48.42H118.222V55H115.702C112.062 55 109.519 54.4167 108.072 53.25C106.672 52.0833 105.972 49.7733 105.972 46.32V9.99ZM121.898 55V9.99H129.598V37.78L142.478 23.5H151.718L139.608 36.8L153.118 55H144.578L134.778 42.12L129.598 47.79V55H121.898ZM164.419 23.5V55H156.719V23.5H164.419ZM155.599 14.26C155.599 12.86 156.066 11.6933 156.999 10.76C157.979 9.78 159.146 9.29 160.499 9.29C161.899 9.29 163.089 9.78 164.069 10.76C165.049 11.6933 165.539 12.86 165.539 14.26C165.539 15.6133 165.049 16.78 164.069 17.76C163.089 18.6933 161.899 19.16 160.499 19.16C159.193 19.16 158.049 18.67 157.069 17.69C156.089 16.71 155.599 15.5667 155.599 14.26ZM169.522 46.6C169.522 39.8333 176.965 35.96 191.852 34.98C192.225 34.9333 192.505 34.91 192.692 34.91V34.63C192.692 30.6633 190.452 28.68 185.972 28.68C184.712 28.68 183.615 28.82 182.682 29.1C181.748 29.38 181.072 29.7067 180.652 30.08C180.232 30.4533 179.882 30.85 179.602 31.27C179.368 31.6433 179.228 31.97 179.182 32.25V32.67H171.062C171.062 32.39 171.085 32.04 171.132 31.62C171.225 31.1533 171.552 30.36 172.112 29.24C172.718 28.12 173.488 27.1167 174.422 26.23C175.355 25.3433 176.825 24.55 178.832 23.85C180.885 23.15 183.288 22.8 186.042 22.8C190.802 22.8 194.372 23.85 196.752 25.95C199.132 28.05 200.322 30.8967 200.322 34.49V46.39C200.322 47.1833 200.438 47.72 200.672 48C200.952 48.28 201.442 48.42 202.142 48.42H203.682V55H202.072C199.412 55 197.405 54.6967 196.052 54.09C194.698 53.4833 193.765 52.41 193.252 50.87C190.638 54.09 186.672 55.7 181.352 55.7C177.432 55.7 174.468 54.86 172.462 53.18C170.502 51.4533 169.522 49.26 169.522 46.6ZM178.902 48.91C179.835 49.5167 181.048 49.8433 182.542 49.89C185.015 49.89 187.325 49.2133 189.472 47.86C191.618 46.46 192.692 44.6633 192.692 42.47V40.09C191.478 40.1833 190.498 40.2767 189.752 40.37C189.005 40.4167 187.932 40.5333 186.532 40.72C185.132 40.9067 183.988 41.14 183.102 41.42C182.215 41.7 181.282 42.0733 180.302 42.54C179.368 42.96 178.668 43.52 178.202 44.22C177.735 44.8733 177.502 45.62 177.502 46.46C177.502 47.5333 177.968 48.35 178.902 48.91Z" fill="white"/>
<path d="M9.49023 25.8877C12.4625 23.7644 16.0892 22.7589 19.7305 23.0488C23.3717 23.3389 26.7939 24.9057 29.3926 27.4727C31.9913 30.0398 33.6 33.4426 33.9346 37.0801C34.2691 40.7177 33.3086 44.3573 31.2217 47.3555C29.1348 50.3535 26.0556 52.5174 22.5283 53.4668C19.1251 54.3827 15.5153 54.1105 12.293 52.7021L8.41309 53.8379C8.38919 53.8449 8.36488 53.851 8.34082 53.8574C7.64112 54.0431 6.90476 54.0474 6.20312 53.8691C5.50162 53.6908 4.85715 53.336 4.33105 52.8389C3.80506 52.3418 3.41495 51.7185 3.19727 51.0283C2.97958 50.3379 2.94107 49.6027 3.08691 48.8936L3.125 48.7324C3.13903 48.6793 3.15494 48.6265 3.17188 48.5742L4.37109 44.8711C2.92685 41.6685 2.61101 38.0662 3.48438 34.6553C4.39057 31.1165 6.51781 28.0111 9.49023 25.8877Z" stroke="white" stroke-width="6" stroke-linecap="round" stroke-linejoin="round"/>
</svg>
